<svg width="44" height="48" viewBox="0 0 44 48" fill="none" xmlns="http://www.w3.org/2000/svg">
<path fill-rule="evenodd" clip-rule="evenodd" d="M22 36.4667C28.8852 36.4667 34.4667 30.8851 34.4667 24C34.4667 17.1149 28.8852 11.5333 22 11.5333C15.1149 11.5333 9.53335 17.1149 9.53335 24C9.53335 30.8851 15.1149 36.4667 22 36.4667ZM22 46C34.1503 46 44.0001 36.1503 44.0001 24C44.0001 11.8497 34.1503 2 22 2C9.84975 2 0 11.8497 0 24C0 36.1503 9.84975 46 22 46Z" fill="#6938EF"/>
<path d="M22.2518 24.4817C24.5429 22.1906 28.2574 22.1906 30.5485 24.4817L41.9565 35.8897C44.2476 38.1807 44.2476 41.8953 41.9565 44.1864C39.6654 46.4775 35.9509 46.4775 33.6598 44.1864L22.2518 32.7784C19.9607 30.4873 19.9607 26.7727 22.2518 24.4817Z" fill="#F670C7"/>
<path d="M25.4551 35.9817L32.7004 43.2271C36.1756 41.2889 39.0709 38.4359 41.0606 34.9938L33.8746 27.8078C32.6124 31.7472 29.4441 34.8336 25.4551 35.9817Z" fill="#6519BA"/>
</svg>
