<svg width="181" height="102" viewBox="0 0 181 102" fill="none" xmlns="http://www.w3.org/2000/svg">
<g clip-path="url(#clip0_31_91)">
<path d="M67.855 39.3099C66.9551 38.7247 66.3809 38.1437 66.1324 37.5668C65.8955 36.9836 65.862 36.4127 66.032 35.8542L67.967 35.9864C67.8556 36.513 67.8845 36.9893 68.0536 37.4152C68.2226 37.8412 68.5839 38.2467 69.1373 38.6319L73.7229 36.1377L73.3948 35.8695C72.8998 35.4655 72.5556 35.0896 72.3623 34.7416C72.1807 34.3872 72.115 34.0604 72.1654 33.7611C72.2274 33.4555 72.388 33.1739 72.6472 32.9165C72.9181 32.6526 73.2526 32.4124 73.6509 32.1958C74.6465 31.6543 75.7372 31.4106 76.9229 31.4648C78.132 31.5193 79.326 31.8409 80.5049 32.4296L82.297 31.4548L83.3709 32.0748L81.5788 33.0495C82.317 33.5414 82.805 34.0463 83.0426 34.5644C83.3036 35.0827 83.3548 35.631 83.1962 36.2092L81.3144 36.0093C81.4243 35.6 81.406 35.2086 81.2595 34.8351C81.1246 34.4683 80.7977 34.1023 80.2789 33.7371L75.9744 36.0783L76.4062 36.4261C76.8897 36.8234 77.2281 37.1961 77.4214 37.5441C77.6148 37.8921 77.6804 38.2189 77.6184 38.5245C77.5796 38.8304 77.4247 39.1153 77.1539 39.3792C76.883 39.643 76.5425 39.8865 76.1326 40.1094C75.1019 40.6701 73.9585 40.9359 72.7027 40.9069C71.4583 40.8845 70.2004 40.5589 68.9289 39.9299L67.1368 40.9046L66.0629 40.2846L67.855 39.3099ZM75.0539 33.0057C74.4799 33.3179 74.1906 33.6565 74.186 34.0215C74.1929 34.3932 74.5012 34.847 75.1109 35.3828L79.2573 33.1276C78.4942 32.7658 77.7521 32.5739 77.0312 32.5517C76.3221 32.5231 75.6629 32.6744 75.0539 33.0057ZM74.712 39.309C75.3445 38.965 75.6458 38.6005 75.6158 38.2155C75.5973 37.8371 75.2542 37.3764 74.5865 36.8333L70.1941 39.2223C71.0036 39.5977 71.7979 39.7936 72.577 39.81C73.3562 39.8264 74.0678 39.6594 74.712 39.309ZM78.5869 45.5252C77.8479 45.0986 77.3533 44.6555 77.1033 44.1959C76.8649 43.73 76.8419 43.2505 77.0343 42.7575C77.2267 42.2644 77.6344 41.7578 78.2575 41.2377C78.8806 40.7175 79.6958 40.1835 80.7032 39.6356C81.6987 39.0941 82.6698 38.6566 83.6162 38.3231C84.5743 37.9832 85.496 37.7667 86.3812 37.6737C87.2664 37.5806 88.1152 37.611 88.9274 37.7647C89.7514 37.9121 90.533 38.1991 91.272 38.6258C92.011 39.0524 92.4997 39.4987 92.738 39.9646C92.9881 40.4241 93.0169 40.9004 92.8246 41.3935C92.6322 41.8865 92.2186 42.3963 91.5838 42.9228C90.9607 43.443 90.1513 43.9738 89.1557 44.5153C88.1484 45.0632 87.1715 45.5039 86.2251 45.8374C85.2787 46.1709 84.3629 46.3842 83.4777 46.4773C82.5924 46.5703 81.7378 46.5432 80.9139 46.3958C80.1016 46.242 79.3259 45.9519 78.5869 45.5252ZM79.8695 44.8276C80.3544 45.1076 80.8638 45.2966 81.3977 45.3947C81.9432 45.4864 82.4956 45.4966 83.0548 45.4255C83.6256 45.3611 84.2089 45.225 84.8048 45.0175C85.4124 44.8035 86.0266 44.5277 86.6474 44.1901L88.6503 43.1007C89.2593 42.7694 89.7637 42.4368 90.1635 42.1029C90.5632 41.7689 90.829 41.4431 90.961 41.1253C91.1046 40.8142 91.0968 40.5077 90.9378 40.2058C90.7905 39.8975 90.4744 39.6033 89.9894 39.3233C89.5044 39.0434 88.9892 38.8575 88.4436 38.7658C87.9098 38.6678 87.3575 38.651 86.7867 38.7154C86.2275 38.7866 85.6441 38.9291 85.0365 39.143C84.4289 39.357 83.8206 39.6296 83.2115 39.9609L81.2086 41.0503C80.5878 41.3879 80.0776 41.7237 79.6778 42.0576C79.2898 42.3852 79.024 42.7045 78.8805 43.0157C78.7485 43.3334 78.7562 43.6465 78.9035 43.9548C79.0625 44.2567 79.3845 44.5476 79.8695 44.8276ZM83.8928 42.6393C83.4887 42.406 83.2878 42.198 83.2901 42.0155C83.304 41.8397 83.428 41.688 83.6623 41.5606L84.0488 41.3504C84.2831 41.223 84.5572 41.158 84.8713 41.1555C85.197 41.1596 85.5619 41.2784 85.966 41.5117C86.3702 41.745 86.5653 41.9496 86.5515 42.1254C86.5491 42.3079 86.4308 42.4629 86.1966 42.5903L85.8101 42.8006C85.5758 42.928 85.2959 42.9896 84.9702 42.9855C84.6561 42.988 84.297 42.8726 83.8928 42.6393ZM89.0253 51.4923C88.5519 51.219 88.3166 50.9715 88.3194 50.7499C88.3338 50.5349 88.4932 50.3446 88.7978 50.179L89.114 50.007C89.4185 49.8413 89.7627 49.7577 90.1466 49.7561C90.542 49.7611 90.9765 49.9003 91.4499 50.1736C91.9233 50.4469 92.1529 50.691 92.1385 50.906C92.1357 51.1276 91.982 51.3213 91.6775 51.4869L91.3612 51.6589C91.0567 51.8245 90.7067 51.9048 90.3113 51.8998C89.9274 51.9015 89.4988 51.7656 89.0253 51.4923ZM99.3584 57.5167C98.6193 57.0901 98.1248 56.647 97.8747 56.1874C97.6364 55.7215 97.6134 55.2421 97.8058 54.749C97.9981 54.256 98.4059 53.7494 99.029 53.2292C99.6521 52.709 100.467 52.175 101.475 51.6271C102.47 51.0856 103.441 50.6481 104.388 50.3146C105.346 49.9747 106.267 49.7583 107.153 49.6652C108.038 49.5721 108.887 49.6025 109.699 49.7562C110.523 49.9036 111.304 50.1906 112.043 50.6173C112.782 51.0439 113.271 51.4902 113.509 51.9561C113.76 52.4157 113.788 52.892 113.596 53.385C113.404 53.878 112.99 54.3878 112.355 54.9144C111.732 55.4345 110.923 55.9654 109.927 56.5069C108.92 57.0548 107.943 57.4954 106.997 57.829C106.05 58.1625 105.134 58.3757 104.249 58.4688C103.364 58.5619 102.509 58.5347 101.685 58.3873C100.873 58.2336 100.097 57.9434 99.3584 57.5167ZM100.641 56.8191C101.126 57.0991 101.635 57.2881 102.169 57.3862C102.715 57.4779 103.267 57.4882 103.826 57.417C104.397 57.3526 104.98 57.2166 105.576 57.009C106.184 56.7951 106.798 56.5193 107.419 56.1816L109.422 55.0922C110.031 54.761 110.535 54.4283 110.935 54.0944C111.335 53.7605 111.601 53.4346 111.732 53.1168C111.876 52.8057 111.868 52.4992 111.709 52.1973C111.562 51.889 111.246 51.5949 110.761 51.3149C110.276 51.0349 109.761 50.849 109.215 50.7574C108.681 50.6593 108.129 50.6425 107.558 50.707C106.999 50.7781 106.416 50.9206 105.808 51.1346C105.2 51.3485 104.592 51.6211 103.983 51.9524L101.98 53.0418C101.359 53.3794 100.849 53.7152 100.449 54.0492C100.061 54.3767 99.7955 54.6961 99.652 55.0072C99.52 55.325 99.5276 55.638 99.6749 55.9463C99.8339 56.2482 100.156 56.5392 100.641 56.8191ZM104.664 54.6308C104.26 54.3975 104.059 54.1896 104.062 54.0071C104.075 53.8312 104.199 53.6796 104.434 53.5522L104.82 53.3419C105.055 53.2145 105.329 53.1495 105.643 53.147C105.968 53.1512 106.333 53.2699 106.737 53.5032C107.142 53.7365 107.337 53.9411 107.323 54.117C107.321 54.2995 107.202 54.4544 106.968 54.5819L106.582 54.7921C106.347 54.9195 106.067 54.9811 105.742 54.977C105.428 54.9795 105.068 54.8641 104.664 54.6308ZM109.744 63.5125C109.005 63.0859 108.511 62.6428 108.26 62.1832C108.022 61.7173 107.999 61.2378 108.192 60.7448C108.384 60.2517 108.792 59.7451 109.415 59.225C110.038 58.7048 110.853 58.1708 111.86 57.6229C112.856 57.0814 113.827 56.6439 114.773 56.3104C115.732 55.9705 116.653 55.754 117.538 55.661C118.424 55.5679 119.272 55.5983 120.085 55.752C120.909 55.8994 121.69 56.1864 122.429 56.613C123.168 57.0397 123.657 57.486 123.895 57.9519C124.145 58.4114 124.174 58.8877 123.982 59.3808C123.789 59.8738 123.376 60.3836 122.741 60.9101C122.118 61.4303 121.309 61.9611 120.313 62.5026C119.306 63.0505 118.329 63.4912 117.382 63.8247C116.436 64.1582 115.52 64.3715 114.635 64.4646C113.75 64.5576 112.895 64.5305 112.071 64.3831C111.259 64.2293 110.483 63.9391 109.744 63.5125ZM111.027 62.8149C111.512 63.0949 112.021 63.2839 112.555 63.382C113.1 63.4737 113.653 63.4839 114.212 63.4128C114.783 63.3484 115.366 63.2123 115.962 63.0048C116.57 62.7908 117.184 62.515 117.805 62.1774L119.807 61.088C120.417 60.7567 120.921 60.4241 121.321 60.0902C121.72 59.7562 121.986 59.4304 122.118 59.1126C122.262 58.8015 122.254 58.495 122.095 58.193C121.948 57.8848 121.632 57.5906 121.147 57.3106C120.662 57.0306 120.146 56.8448 119.601 56.7531C119.067 56.6551 118.515 56.6383 117.944 56.7027C117.385 56.7739 116.801 56.9164 116.194 57.1303C115.586 57.3443 114.978 57.6169 114.369 57.9482L112.366 59.0376C111.745 59.3752 111.235 59.711 110.835 60.0449C110.447 60.3725 110.181 60.6918 110.038 61.0029C109.906 61.3207 109.913 61.6338 110.061 61.9421C110.22 62.244 110.542 62.5349 111.027 62.8149ZM115.05 60.6266C114.646 60.3933 114.445 60.1853 114.447 60.0028C114.461 59.827 114.585 59.6753 114.819 59.5479L115.206 59.3377C115.44 59.2103 115.714 59.1453 116.029 59.1428C116.354 59.1469 116.719 59.2656 117.123 59.499C117.527 59.7323 117.723 59.9369 117.709 60.1127C117.706 60.2952 117.588 60.4502 117.354 60.5776L116.967 60.7879C116.733 60.9153 116.453 60.9769 116.127 60.9728C115.813 60.9753 115.454 60.8599 115.05 60.6266Z" fill="black"/>
<path d="M177.646 40.4156L177.691 40.4193L177.735 40.4193C177.981 40.4196 178.209 40.466 178.376 40.543C178.592 40.6432 178.713 40.8464 178.616 41.0953C178.519 41.3415 178.243 41.5317 177.912 41.5952L177.783 41.6198L177.686 41.6726L70.961 99.7207L70.8658 99.7725L70.818 99.842C70.6277 100.119 70.0362 100.308 69.5541 100.269L69.4802 100.584L69.5541 100.269C69.101 100.231 68.7162 99.9794 68.7243 99.707L68.725 99.6835L68.72 99.6601L66.1672 87.6628L66.1044 87.3675L65.575 87.3531L46.5326 86.836C46.5316 86.8359 46.5306 86.8359 46.5296 86.8359C46.0489 86.8189 45.6234 86.5733 45.6075 86.3035C45.6075 86.303 45.6074 86.3024 45.6074 86.3018L45.2459 75.7046L45.2347 75.3765L44.6498 75.3605L25.7575 74.8423C25.7565 74.8423 25.7555 74.8422 25.7544 74.8422C25.2737 74.8253 24.8483 74.5796 24.8324 74.3099C24.8323 74.3093 24.8323 74.3087 24.8323 74.3082L24.4771 63.627L24.4672 63.3301L23.9423 63.2861L2.67279 61.5034C1.95465 61.3641 1.69137 61.1908 1.64197 61.0704C1.59483 60.9555 1.66565 60.6879 2.55285 60.2538L2.56483 60.248L2.57624 60.2418L109.732 1.95952L109.738 1.95614L109.744 1.95265C110.166 1.7096 110.898 1.70737 111.255 1.88363C111.416 1.97262 111.524 2.10026 111.54 2.23574L111.541 2.24461L111.542 2.25345L114.056 14.272L114.118 14.568L114.649 14.5824L133.691 15.0996C133.692 15.0996 133.693 15.0996 133.694 15.0997C134.175 15.1165 134.6 15.3623 134.616 15.6322C134.616 15.6327 134.616 15.6332 134.616 15.6337L134.978 26.2309L134.989 26.559L135.574 26.575L154.466 27.0932C154.467 27.0933 154.468 27.0933 154.469 27.0933C154.95 27.1102 155.375 27.3559 155.391 27.6257C155.391 27.6263 155.391 27.6268 155.391 27.6274L155.746 38.3086L155.756 38.6061L156.282 38.6496L177.646 40.4156ZM132.472 16.6158L132.461 16.2877L131.876 16.2717L112.987 15.7536C112.531 15.7321 112.132 15.5121 112.089 15.2595L112.089 15.2595L112.087 15.252L109.796 4.32615L109.648 3.62281L108.75 4.11127L6.01337 59.9901L5.11531 60.4785L6.36551 60.5821L25.7865 62.1912L25.7865 62.1913L25.8022 62.1924C25.9554 62.2028 26.1036 62.2323 26.2263 62.2761C26.4633 62.3749 26.6164 62.542 26.6151 62.7178L26.615 62.7178L26.6152 62.7258L26.9769 73.3265L26.9881 73.6546L27.573 73.6707L46.4653 74.1889C46.4662 74.1889 46.467 74.1889 46.4679 74.189C46.9489 74.2057 47.3748 74.4516 47.3905 74.7216C47.3905 74.7221 47.3905 74.7225 47.3905 74.723L47.752 85.3202L47.7632 85.6483L48.3481 85.6643L67.2468 86.1827L67.2495 86.1828C67.7093 86.1943 68.1212 86.409 68.1759 86.6638L70.4674 97.5886L70.6149 98.2919L71.513 97.8035L174.25 41.9247L175.148 41.4362L173.898 41.3327L154.477 39.7236L154.477 39.7235L154.463 39.7225C154.014 39.6909 153.633 39.4609 153.609 39.2049L153.247 28.6095L153.236 28.2814L152.651 28.2654L133.759 27.7472C133.758 27.7471 133.757 27.7471 133.756 27.7471C133.275 27.7302 132.849 27.4844 132.833 27.2146C132.833 27.214 132.833 27.2135 132.833 27.213L132.472 16.6158Z" stroke="black"/>
</g>
<defs>
<clipPath id="clip0_31_91">
<rect width="179.679" height="100.045" fill="white" transform="translate(0.351562 0.958496)"/>
</clipPath>
</defs>
</svg>
